<?xml version="1.0" encoding="UTF-8"?>
<svg id="Layer_2" data-name="Layer 2" xmlns="http://www.w3.org/2000/svg" viewBox="0 0 800 637.19">
  <defs>
    <style>
      .cls-1 {
        fill: #fff;
      }

      .cls-2 {
        fill: #10ab54;
      }
    </style>
  </defs>
  <g id="Capa_1" data-name="Capa 1">
    <g>
      <path class="cls-1" d="M763.21,0H36.79C16.5,0,0,16.5,0,36.79v475.93c0,20.29,16.5,36.79,36.79,36.79h247.45l-18.34,64.19h-53.77c-6.48,0-11.74,5.26-11.74,11.74s5.26,11.74,11.74,11.74h62.58s.03,0,.04,0c.01,0,.03,0,.04,0h250.4s.03,0,.04,0c.01,0,.03,0,.04,0h62.58c6.48,0,11.74-5.26,11.74-11.74s-5.26-11.74-11.74-11.74h-53.77l-18.34-64.19h247.45c20.29,0,36.79-16.5,36.79-36.79V36.79c0-20.29-16.5-36.79-36.79-36.79Zm-253.53,613.7h-219.36l18.34-64.19h182.68l18.34,64.19Zm266.84-100.98c0,7.34-5.97,13.31-13.31,13.31H36.79c-7.34,0-13.31-5.97-13.31-13.31V36.79c0-7.34,5.97-13.31,13.31-13.31H763.21c7.34,0,13.31,5.97,13.31,13.31v475.93Z"/>
      <g>
        <path class="cls-2" d="M355.08,234.97c-5.41,0-9.81-4.38-9.81-9.76s4.4-9.76,9.81-9.76,9.81,4.38,9.81,9.76-4.4,9.76-9.81,9.76m-67.55-38.12c-5.41,0-9.81-4.38-9.81-9.76s4.4-9.76,9.81-9.76,9.81,4.38,9.81,9.76c0,5.38-4.4,9.76-9.81,9.76m-67.55,38.12c-5.41,0-9.81-4.38-9.81-9.76s4.4-9.76,9.81-9.76,9.82,4.38,9.82,9.76-4.4,9.76-9.82,9.76m202.65-113.33c5.41,0,9.81,4.38,9.81,9.76s-4.4,9.76-9.81,9.76-9.81-4.38-9.81-9.76,4.4-9.76,9.81-9.76m0,34.14c13.53,0,24.53-10.94,24.53-24.39s-11-24.39-24.53-24.39-24.53,10.94-24.53,24.39c0,5.49,1.84,10.56,4.93,14.65l-40.3,56c-2.41-.79-4.97-1.22-7.64-1.22-6.44,0-12.31,2.49-16.7,6.54l-26.87-15.15c.36-1.65,.55-3.37,.55-5.13,0-13.45-11-24.39-24.53-24.39s-24.53,10.94-24.53,24.39c0,1.76,.2,3.47,.55,5.13l-26.86,15.15c-4.39-4.05-10.25-6.54-16.7-6.54-13.53,0-24.53,10.95-24.53,24.4s11,24.39,24.53,24.39,24.53-10.95,24.53-24.39c0-1.76-.2-3.47-.55-5.14l26.86-15.15c4.39,4.05,10.25,6.54,16.7,6.54s12.32-2.49,16.71-6.54l26.86,15.15c-.35,1.66-.55,3.38-.55,5.14,0,13.45,11.01,24.39,24.53,24.39s24.53-10.94,24.53-24.39c0-5.5-1.83-10.57-4.93-14.65l40.31-56c2.4,.79,4.96,1.22,7.64,1.22"/>
        <path class="cls-2" d="M227.56,351.67h-15.14v-50.02h15.14v50.02Zm-22.5-64.65c-4.06,0-7.36,3.28-7.36,7.32v64.65c0,4.04,3.29,7.31,7.36,7.31h29.86c4.06,0,7.36-3.27,7.36-7.31v-64.65c0-4.04-3.29-7.32-7.36-7.32h-29.86Z"/>
        <path class="cls-2" d="M295.11,351.67h-15.14v-87.41h15.14v87.41Zm-22.5-102.04c-4.06,0-7.36,3.28-7.36,7.32v102.04c0,4.03,3.29,7.31,7.36,7.31h29.86c4.06,0,7.36-3.28,7.36-7.31v-102.04c0-4.04-3.29-7.32-7.36-7.32h-29.86Z"/>
        <path class="cls-2" d="M362.66,351.67h-15.14v-50.02h15.14v50.02Zm-22.5-64.65c-4.06,0-7.36,3.28-7.36,7.32v64.65c0,4.04,3.29,7.31,7.36,7.31h29.86c4.06,0,7.36-3.27,7.36-7.31v-64.65c0-4.04-3.29-7.32-7.36-7.32h-29.86Z"/>
        <path class="cls-2" d="M407.7,330.19c-4.06,0-7.36,3.28-7.36,7.32v21.47c0,4.04,3.29,7.32,7.36,7.32h29.86c4.06,0,7.36-3.28,7.36-7.32s-3.29-7.31-7.36-7.31h-22.5v-14.16c0-4.04-3.29-7.32-7.36-7.32"/>
        <path class="cls-2" d="M583.18,425.93c-6.33,3.64-14.45,1.47-18.11-4.82l-40.62-69.95c4.07-1.65,8.06-3.58,11.93-5.8,3.87-2.23,7.55-4.7,11.02-7.38l40.62,69.95c1.16,2.01,1.78,4.29,1.78,6.58,0,4.7-2.55,9.08-6.63,11.43m-115.97-85.16c-21.02-5.6-38.59-19-49.48-37.74-22.46-38.68-9.08-88.32,29.82-110.65,12.8-7.35,26.79-10.84,40.61-10.84,28.18,0,55.62,14.53,70.69,40.49,10.89,18.74,13.77,40.56,8.14,61.46-5.63,20.9-19.12,38.37-37.96,49.19-18.85,10.81-40.8,13.68-61.82,8.09m133.57,59.84l-42.22-72.7c10.7-11.34,18.48-25.19,22.65-40.62,6.65-24.68,3.24-50.44-9.6-72.57-26.53-45.67-85.47-61.37-131.41-35-45.93,26.36-61.73,84.97-35.21,130.63,12.85,22.12,33.59,37.95,58.41,44.56,8.29,2.21,16.69,3.3,25.05,3.3,7.3,0,14.57-.84,21.66-2.49l42.21,72.71c5.18,8.91,14.6,13.9,24.28,13.9,4.74,0,9.54-1.2,13.94-3.72,8.64-4.96,14-14.19,14-24.11,0-4.86-1.3-9.66-3.75-13.89"/>
        <path class="cls-2" d="M555.02,283.15c5.2-16.64,3.96-34.45-3.48-50.16-1.73-3.66-6.12-5.23-9.79-3.5-3.68,1.72-5.25,6.08-3.52,9.73,5.87,12.39,6.84,26.45,2.74,39.59-4.12,13.21-13.04,24.3-25.1,31.22-12.75,7.32-27.62,9.26-41.85,5.47-14.23-3.79-26.12-12.86-33.49-25.54-15.2-26.18-6.15-59.79,20.19-74.9,19.26-11.06,43.16-9.58,60.9,3.76,3.24,2.44,7.85,1.8,10.31-1.43,2.45-3.22,1.81-7.81-1.44-10.24-22.46-16.9-52.74-18.77-77.12-4.77-16.17,9.27-27.73,24.25-32.56,42.18-4.84,17.92-2.36,36.64,6.98,52.71,9.33,16.07,24.41,27.56,42.43,32.38,6.02,1.6,12.13,2.39,18.2,2.39,12.11,0,24.06-3.16,34.83-9.33,15.27-8.77,26.56-22.82,31.79-39.55"/>
      </g>
    </g>
  </g>
</svg>