<?xml version="1.0" encoding="UTF-8"?>
<svg id="Layer_2" data-name="Layer 2" xmlns="http://www.w3.org/2000/svg" viewBox="0 0 799.98 637.18">
  <defs>
    <style>
      .cls-1 {
        fill: #00af55;
      }

      .cls-2 {
        fill: #fff;
      }
    </style>
  </defs>
  <g id="Capa_1" data-name="Capa 1">
    <g>
      <path class="cls-2" d="M763.21,0H36.79C16.5,0,0,16.5,0,36.79v475.93c0,20.29,16.5,36.79,36.79,36.79h247.45l-18.34,64.19h-53.77c-6.48,0-11.74,5.26-11.74,11.74s5.26,11.74,11.74,11.74h375.72c6.48,0,11.74-5.26,11.74-11.74s-5.26-11.74-11.74-11.74h-53.77l-18.34-64.19h247.45c20.29,0,36.79-16.5,36.79-36.79V36.79c0-20.29-16.5-36.79-36.79-36.79h.02Zm-253.53,613.7h-219.36l18.34-64.19h182.68l18.34,64.19h0Zm266.84-100.98c0,7.34-5.97,13.31-13.31,13.31H36.79c-7.34,0-13.31-5.97-13.31-13.31V36.79c0-7.34,5.97-13.31,13.31-13.31H763.21c7.34,0,13.31,5.97,13.31,13.31v475.93h0Z"/>
      <g>
        <g>
          <path d="M289.32,178.33c-4.59-4.59-12.02-4.59-16.6,0-4.59,4.59-4.59,12.02,0,16.6l79.37,79.37-79.37,79.37c-4.59,4.59-4.59,12.02,0,16.6,2.29,2.29,5.3,3.44,8.3,3.44s6.01-1.15,8.3-3.44l87.67-87.67c4.59-4.59,4.59-12.02,0-16.6l-87.67-87.67h0Z"/>
          <path d="M289.32,178.33c-4.59-4.59-12.02-4.59-16.6,0-4.59,4.59-4.59,12.02,0,16.6l79.37,79.37-79.37,79.37c-4.59,4.59-4.59,12.02,0,16.6,2.29,2.29,5.3,3.44,8.3,3.44s6.01-1.15,8.3-3.44l87.67-87.67c4.59-4.59,4.59-12.02,0-16.6l-87.67-87.67h0Z"/>
          <path class="cls-1" d="M289.32,178.33c-4.59-4.59-12.02-4.59-16.6,0-4.59,4.59-4.59,12.02,0,16.6l79.37,79.37-79.37,79.37c-4.59,4.59-4.59,12.02,0,16.6,2.29,2.29,5.3,3.44,8.3,3.44s6.01-1.15,8.3-3.44l87.67-87.67c4.59-4.59,4.59-12.02,0-16.6l-87.67-87.67h0Z"/>
        </g>
        <g>
          <path d="M518.99,350.23h-125.24c-6.48,0-11.74,5.26-11.74,11.74s5.26,11.74,11.74,11.74h125.24c6.48,0,11.74-5.26,11.74-11.74s-5.26-11.74-11.74-11.74Z"/>
          <path d="M518.99,350.23h-125.24c-6.48,0-11.74,5.26-11.74,11.74s5.26,11.74,11.74,11.74h125.24c6.48,0,11.74-5.26,11.74-11.74s-5.26-11.74-11.74-11.74Z"/>
          <path class="cls-1" d="M518.99,350.23h-125.24c-6.48,0-11.74,5.26-11.74,11.74s5.26,11.74,11.74,11.74h125.24c6.48,0,11.74-5.26,11.74-11.74s-5.26-11.74-11.74-11.74Z"/>
        </g>
      </g>
    </g>
  </g>
</svg>