<?xml version="1.0" encoding="UTF-8"?>
<svg id="Layer_2" data-name="Layer 2" xmlns="http://www.w3.org/2000/svg" viewBox="0 0 799.98 637.18">
  <defs>
    <style>
      .cls-1 {
        fill: #fff;
      }

      .cls-2 {
        fill: #00af55;
        fill-rule: evenodd;
      }
    </style>
  </defs>
  <g id="Layer_2-2" data-name="Layer 2">
    <g>
      <path class="cls-1" d="M763.21,0H36.79C16.5,0,0,16.5,0,36.79v475.93c0,20.29,16.5,36.79,36.79,36.79h247.45l-18.34,64.19h-53.77c-6.48,0-11.74,5.26-11.74,11.74s5.26,11.74,11.74,11.74h375.72c6.48,0,11.74-5.26,11.74-11.74s-5.26-11.74-11.74-11.74h-53.77l-18.34-64.19h247.45c20.29,0,36.79-16.5,36.79-36.79V36.79c0-20.29-16.5-36.79-36.79-36.79h.02Zm-253.53,613.7h-219.36l18.34-64.19h182.68l18.34,64.19h0Zm266.84-100.98c0,7.34-5.97,13.31-13.31,13.31H36.79c-7.34,0-13.31-5.97-13.31-13.31V36.79c0-7.34,5.97-13.31,13.31-13.31H763.21c7.34,0,13.31,5.97,13.31,13.31v475.93h0Z"/>
      <path class="cls-2" d="M369.34,369.91c2.44,4.57,4.88,8.69,7.22,12.34-24.81-5.58-46.34-19.83-61.23-39.4,9.83-5.54,22.42-11.28,37.56-15.48,4.3,16.87,10.37,31.13,16.45,42.53h0Zm18.77-10c-5.28-9.91-10.58-22.28-14.4-36.94,8.21-1.22,16.98-1.92,26.28-1.92s18.07,.7,26.28,1.92c-3.82,14.66-9.11,27.03-14.4,36.94-4.24,7.94-8.46,14.29-11.88,18.93-3.43-4.64-7.65-10.98-11.88-18.93Zm-20.02-81.39c0,8.28,.56,16.14,1.54,23.56,9.48-1.45,19.61-2.3,30.36-2.3s20.89,.84,30.36,2.3c.98-7.42,1.54-15.28,1.54-23.56s-.56-16.14-1.54-23.56c-9.47,1.45-19.6,2.3-30.36,2.3s-20.89-.84-30.36-2.3c-.98,7.42-1.54,15.28-1.54,23.56Zm-19.33-27.95c-1.24,8.78-1.94,18.1-1.94,27.95s.71,19.17,1.94,27.95c-18.06,4.85-33.01,11.68-44.57,18.26-6.75-13.97-10.54-29.65-10.54-46.21s3.79-32.23,10.54-46.21c11.56,6.58,26.51,13.41,44.57,18.26h0Zm24.95-16.51c8.21,1.22,16.98,1.92,26.28,1.92s18.07-.7,26.28-1.92c-3.82-14.66-9.11-27.03-14.4-36.94-4.24-7.94-8.46-14.29-11.88-18.93-3.43,4.64-7.65,10.98-11.88,18.93-5.28,9.91-10.58,22.28-14.4,36.94Zm77.51,16.51c1.23,8.78,1.94,18.1,1.94,27.95s-.71,19.17-1.94,27.95c18.06,4.85,33.01,11.68,44.57,18.26,6.75-13.97,10.54-29.65,10.54-46.21s-3.79-32.23-10.54-46.21c-11.56,6.58-26.51,13.41-44.57,18.26h0Zm33.44-36.4c-9.83,5.54-22.42,11.28-37.56,15.48-4.3-16.88-10.37-31.13-16.46-42.53-2.44-4.57-4.88-8.69-7.22-12.34,24.81,5.58,46.34,19.83,61.23,39.4h0Zm-131.77,15.46c-15.14-4.2-27.73-9.94-37.56-15.48,14.9-19.57,36.42-33.82,61.23-39.4-2.33,3.65-4.78,7.77-7.22,12.34-6.08,11.4-12.15,25.66-16.45,42.53h0Zm94.21,97.75c-4.3,16.88-10.37,31.13-16.46,42.53-2.44,4.57-4.88,8.69-7.22,12.34,24.81-5.58,46.34-19.83,61.24-39.4-9.83-5.54-22.42-11.27-37.56-15.48h0Zm-47.11,78.75c70.47,0,127.6-57.13,127.6-127.6s-57.13-127.6-127.6-127.6-127.6,57.13-127.6,127.6,57.13,127.6,127.6,127.6h0Z"/>
    </g>
  </g>
</svg>